<?xml version="1.0" encoding="UTF-8"?>
<svg width="96px" height="50px" viewBox="0 0 96 50" version="1.1" xmlns="http://www.w3.org/2000/svg" xmlns:xlink="http://www.w3.org/1999/xlink">
    <!-- Generator: Sketch 53.2 (72643) - https://sketchapp.com -->
    <title>Group 3 Copy 3</title>
    <desc>Created with Sketch.</desc>
    <g id="Page-1" stroke="none" stroke-width="1" fill="none" fill-rule="evenodd">
        <g id="Group-3-Copy-3">
            <g id="Group-Copy-3" fill="#FFFFFF">
                <path d="M42.552,0.784 L48.408,3.52 L26.856,48.304 L20.952,45.616 L22.872,41.68 L0.312,27.664 L0.312,22.24 L19.128,10.576 L22.488,15.808 L6.888,24.928 L25.608,35.92 L42.552,0.784 Z M71.336,10.408 L95.288,25.192 L95.288,30.664 L76.568,42.28 L73.16,37.096 L88.712,27.928 L68.552,16.168 L53.096,48.376 L47.192,45.64 L67.352,3.784 L73.208,6.52 L71.336,10.408 Z" id="Combined-Shape"></path>
            </g>
            <g id="Group-2" transform="translate(20.000000, 0.000000)" fill="#9773FF">
                <path d="M6.904,48.824 L0.508,45.86 L22.348,0.516 L28.692,3.48 L6.904,48.824 Z M32.904,49.824 L26.508,46.86 L48.348,1.516 L54.692,4.48 L32.904,49.824 Z" id="Combined-Shape"></path>
            </g>
        </g>
    </g>
</svg>